<svg width="837" height="520" viewBox="0 0 837 520" fill="none" xmlns="http://www.w3.org/2000/svg">
<path d="M367.594 242.848L369.594 242.825L369.571 240.825L367.542 238.348L367.507 235.349L284.513 236.312L279.984 233.865L276.484 233.906L280.013 236.365L282.048 239.341L284.577 241.812L289.611 244.754L291.129 246.236L293.628 246.207L369.623 245.325M365.101 200.374L365.246 212.873L266.753 214.017L261.753 214.075L253.201 209.674L247.15 205.244L242.563 197.797L245.063 197.768L255.108 201.652L365.101 200.374ZM261.817 219.575L264.363 223.546L266.898 226.516L268.898 226.493L272.432 229.452L276.432 229.406L365.426 228.372L365.31 218.373L276.316 219.406L266.817 219.517L261.782 216.575L259.782 216.598L261.817 219.575ZM370.112 201.316C369.854 207.82 369.541 221.024 370.35 221.815C371.16 222.605 370.738 226.477 370.426 228.314L371.995 234.296L373.042 238.285L375.623 245.255L381.733 254.685L385.779 258.638L392.842 264.056L397.888 267.998L399.9 268.975L408.824 262.371L413.277 258.319L419.672 249.244L424.091 242.192L425.021 236.181L425.992 233.669L425.835 220.17L425.62 201.672L370.112 201.316ZM430.608 200.614L430.689 207.613L430.742 212.113L487.238 211.457L518.736 211.091L532.735 210.928L537.235 210.876L541.682 206.324L548.612 200.243L551.542 194.209L548.542 194.244L541.589 198.325L430.608 200.614ZM430.806 217.612L430.922 227.612L518.916 226.59L525.88 223.509L529.845 220.463L532.799 216.428L537.264 213.376L529.799 216.463L430.806 217.612ZM431.003 234.611L428.567 240.14L426.119 244.669L504.114 243.763L509.585 241.199L513.532 236.653L518.985 232.589L431.003 234.611ZM384.943 186.643L387.512 192.613L385.053 196.142L397.052 196.003L408.052 195.875L405.011 192.41L402.442 186.44L402.389 181.94L398.832 176.981L393.309 175.045L387.309 175.115L384.833 177.144L380.862 179.69L374.862 179.759L373.415 184.277L374.944 186.759L380.943 186.689L384.943 186.643Z" stroke="black"/>
<path d="M385.945 179.108L393.445 179.036L389.979 182.57L385.95 179.608M377.684 256.69L381.227 261.157L381.26 264.656L377.817 270.689L374.879 277.218L372.398 279.241L365.899 279.303L365.794 268.304L377.684 256.69ZM387.274 266.099L391.317 270.561L388.993 289.084L381.541 294.155L377.917 281.189L387.274 266.099ZM396.335 272.513L403.335 272.446L405.511 290.927L399.592 299.483L393.521 292.041L396.335 272.513ZM407.806 269.404L411.773 265.866L420.415 280.784L418.039 293.807L410.001 289.884L407.806 269.404ZM415.249 263.333L424.905 279.741L433.405 279.66L433.281 266.661L420.687 256.781L415.249 263.333Z" stroke="black"/>
<path d="M374.736 209.716L374.698 205.716L422.696 205.259L422.953 232.258L420.053 242.786L416.115 249.324L403.702 258.442L406.182 256.419L413.054 242.853L415.953 232.325L415.734 209.326L374.736 209.716Z" stroke="black"/>
</svg>
