<svg width="52" height="50" viewBox="0 0 52 50" fill="none" xmlns="http://www.w3.org/2000/svg">
<path d="M46.434 0H19.4021C16.3931 0 13.9583 2.2475 13.9583 5.025V19.1175L1.22375 30.7225C0.842186 31.0708 0.581336 31.516 0.474304 32.0014C0.367272 32.4868 0.418883 32.9907 0.622587 33.449C0.826291 33.9073 1.17291 34.2994 1.61844 34.5755C2.06397 34.8517 2.58834 34.9994 3.125 35V47.5C3.125 48.163 3.41034 48.7989 3.91825 49.2678C4.42616 49.7366 5.11504 50 5.83333 50H49.1667C49.885 50 50.5738 49.7366 51.0817 49.2678C51.5897 48.7989 51.875 48.163 51.875 47.5V5.0225C51.875 2.2475 49.4429 0 46.434 0ZM24.5804 32.7775V45H8.54167V31.08L16.6315 23.7075L24.5804 31.215V32.7775V32.7775ZM30.2083 17.5H24.7917V12.5H30.2083V17.5ZM41.0417 37.5H35.625V32.5H41.0417V37.5ZM41.0417 27.5H35.625V22.5H41.0417V27.5ZM41.0417 17.5H35.625V12.5H41.0417V17.5Z" fill="black"/>
</svg>
